<svg width="37" height="38" viewBox="0 0 37 38" fill="none" xmlns="http://www.w3.org/2000/svg">
<circle opacity="0.7" cx="18.4961" cy="18.5703" r="18.5" fill="#EFF1FF"/>
<path d="M16.9925 20.9672C16.5389 20.9672 16.2732 20.7145 16.2732 20.2609V19.7361C14.3683 19.6065 12.4698 19.2177 10.5 18.4726V17.4034C12.9233 18.4661 15.3531 18.8419 17.9968 18.8419C20.6469 18.8419 23.0767 18.4661 25.5 17.4034V18.4726C23.5302 19.2177 21.6318 19.6065 19.7268 19.7361V20.2609C19.7268 20.7145 19.4612 20.9672 19.0076 20.9672H16.9925ZM12.5022 25.276H23.4979C24.8392 25.276 25.5 24.6281 25.5 23.2998V16.9952C25.5 15.6669 24.8392 15.019 23.4979 15.019H12.5022C11.1674 15.019 10.5 15.6669 10.5 16.9952V23.2998C10.5 24.6281 11.1674 25.276 12.5022 25.276ZM14.7117 15.5827H15.716V14.4358C15.716 13.9434 16.0076 13.6648 16.513 13.6648H19.487C19.9925 13.6648 20.2776 13.9434 20.2776 14.4358V15.5697H21.2819V14.5071C21.2819 13.2889 20.6404 12.7188 19.4676 12.7188H16.5259C15.4179 12.7188 14.7117 13.2889 14.7117 14.5071V15.5827Z" fill="#40196D"/>
<path d="M16.9925 20.9691C16.5389 20.9691 16.2732 20.7164 16.2732 20.2628V19.738C14.3683 19.6084 12.4698 19.2197 10.5 18.4745V17.4054C12.9233 18.468 15.3531 18.8438 17.9968 18.8438C20.6469 18.8438 23.0767 18.468 25.5 17.4054V18.4745C23.5302 19.2197 21.6318 19.6084 19.7268 19.738V20.2628C19.7268 20.7164 19.4612 20.9691 19.0076 20.9691H16.9925ZM12.5022 25.278H23.4979C24.8392 25.278 25.5 24.6301 25.5 23.3017V16.9972C25.5 15.6689 24.8392 15.0209 23.4979 15.0209H12.5022C11.1674 15.0209 10.5 15.6689 10.5 16.9972V23.3017C10.5 24.6301 11.1674 25.278 12.5022 25.278ZM14.7117 15.5846H15.716V14.4378C15.716 13.9453 16.0076 13.6667 16.513 13.6667H19.487C19.9925 13.6667 20.2776 13.9453 20.2776 14.4378V15.5717H21.2819V14.509C21.2819 13.2909 20.6404 12.7207 19.4676 12.7207H16.5259C15.4179 12.7207 14.7117 13.2909 14.7117 14.509V15.5846Z" fill="#40196D"/>
</svg>
