<svg width="37" height="37" viewBox="0 0 37 37" fill="none" xmlns="http://www.w3.org/2000/svg">
<circle cx="18.5" cy="18.5" r="18.5" fill="#DFE3FF"/>
<path d="M24.2076 12.4995H12.6686C11.1344 12.4995 10.2988 13.3278 10.2988 14.8549V15.4383H26.5701V14.8549C26.5701 13.3278 25.7418 12.4995 24.2076 12.4995ZM13.216 22.2594C12.8126 22.2594 12.5461 21.9857 12.5461 21.604V20.3434C12.5461 19.9617 12.8126 19.688 13.216 19.688H14.8871C15.2832 19.688 15.5497 19.9617 15.5497 20.3434V21.604C15.5497 21.9857 15.2832 22.2594 14.8871 22.2594H13.216ZM12.6686 24.4995H24.2076C25.7418 24.4995 26.5701 23.6712 26.5701 22.1514V17.095H10.2988V22.1514C10.2988 23.6784 11.1344 24.4995 12.6686 24.4995Z" fill="#40196D"/>
</svg>
