<svg width="25" height="25" viewBox="0 0 25 25" fill="none" xmlns="http://www.w3.org/2000/svg">
<circle opacity="0.7" cx="12.5" cy="12.5" r="12.5" fill="#FFF5DB"/>
<path d="M9 12.7667C9 10.6864 10.6864 9 12.7667 9C14.8471 9 16.5335 10.6864 16.5335 12.7667C16.5335 14.8471 14.8471 16.5335 12.7667 16.5335C10.6864 16.5335 9 14.8471 9 12.7667Z" fill="white"/>
<path fill-rule="evenodd" clip-rule="evenodd" d="M13.0747 7.625L13.2018 7.6445C13.5069 7.68909 13.8072 7.76222 14.0985 7.86292C14.5272 8.01081 14.9328 8.21826 15.3033 8.47915C15.7794 8.80796 16.1885 9.22387 16.5091 9.70481L16.5247 9.73016H16.5022H14.8672C14.86 9.73066 14.8529 9.72871 14.8471 9.72463C14.8412 9.72055 14.8369 9.71459 14.8349 9.70773C14.657 9.35609 14.4441 9.02321 14.1993 8.71414C13.9319 8.38211 13.6215 8.08701 13.2761 7.83659C13.2421 7.81123 13.2073 7.78729 13.1724 7.76326C13.1362 7.7383 13.0998 7.71325 13.0639 7.68643L13.0444 7.67278L13.0669 7.6562L13.0551 7.625H13.0747ZM15.51 12.2369H17.3709V12.1979C17.3705 12.1901 17.3705 12.1823 17.3709 12.1745C17.3587 11.9849 17.3359 11.7961 17.3025 11.609C17.2196 11.1376 17.0677 10.681 16.8517 10.2537C16.8487 10.2465 16.8435 10.2405 16.8368 10.2366C16.83 10.2327 16.8222 10.2312 16.8145 10.2322H15.0787C15.203 10.5521 15.3011 10.8814 15.3721 11.217C15.4441 11.553 15.4902 11.894 15.51 12.2369ZM17.3699 12.8566C17.3725 12.8352 17.375 12.814 17.375 12.7929V12.7422H15.5111C15.4983 13.0722 15.4601 13.4008 15.3967 13.725C15.3332 14.0496 15.2433 14.3686 15.1278 14.6786H15.1493H16.8567C16.863 14.6794 16.8694 14.678 16.8747 14.6746C16.88 14.6712 16.8841 14.6661 16.886 14.6601C16.9059 14.6137 16.9265 14.5674 16.9471 14.5212L16.9471 14.5212L16.9471 14.5212L16.9471 14.5212L16.9471 14.5212L16.9471 14.5212L16.9471 14.5212L16.9471 14.5212L16.9471 14.5212L16.9471 14.5211L16.9471 14.5211L16.9471 14.5211L16.9471 14.5211L16.9471 14.5211L16.9471 14.5211C16.9853 14.4354 17.0235 14.3497 17.0572 14.2623C17.229 13.8231 17.3332 13.3606 17.3662 12.8904C17.3672 12.879 17.3685 12.8678 17.3699 12.8566ZM14.4539 10.2333H12.6858V12.2214H14.9545V12.2097C14.9411 11.9809 14.9146 11.753 14.8753 11.5272C14.7996 11.0911 14.6719 10.6655 14.4949 10.2596C14.4924 10.251 14.4869 10.2436 14.4793 10.2388C14.4718 10.2339 14.4627 10.232 14.4539 10.2333ZM12.6721 14.6775V12.7527H14.9438C14.9438 12.7946 14.9438 12.8356 14.9379 12.8765C14.9147 13.2387 14.8571 13.5978 14.7658 13.9491C14.7029 14.19 14.6242 14.4264 14.5301 14.657C14.5285 14.6636 14.5245 14.6693 14.5189 14.673C14.5133 14.6768 14.5065 14.6784 14.4998 14.6775H12.6721ZM9.95663 12.1552L9.95662 12.1552L9.95662 12.1552L9.95662 12.1552L9.95662 12.1552L9.95662 12.1552L9.95662 12.1552L9.95662 12.1553L9.95662 12.1553L9.95662 12.1553C9.95466 12.1821 9.95269 12.2091 9.95052 12.2362H12.1723V10.2471H10.4463C10.44 10.2463 10.4337 10.2477 10.4283 10.2511C10.423 10.2545 10.419 10.2596 10.417 10.2656C10.2634 10.6167 10.1467 10.9826 10.0688 11.3577C10.0251 11.5641 9.99249 11.7728 9.97106 11.9827C9.96505 12.04 9.96086 12.0973 9.95663 12.1552ZM12.1704 14.6785H10.3994C10.3905 14.6795 10.3816 14.6773 10.3742 14.6722C10.3669 14.6672 10.3616 14.6597 10.3593 14.6512C10.2083 14.2857 10.0981 13.9047 10.0307 13.5152C9.98747 13.267 9.96068 13.0162 9.95052 12.7644V12.7527H12.1704V14.6785ZM9.82128 10.2362L9.82234 10.2332V10.2362H9.82128ZM8.1824 10.2362H9.82128C9.81163 10.2626 9.80199 10.2883 9.79249 10.3137L9.79243 10.3139L9.7924 10.3139L9.79239 10.314L9.79235 10.3141C9.77913 10.3494 9.76619 10.3839 9.75389 10.4185C9.54861 10.9925 9.42613 11.5926 9.39011 12.2009C9.39081 12.2043 9.39061 12.2078 9.38952 12.211C9.38843 12.2143 9.3865 12.2172 9.38392 12.2195C9.38134 12.2218 9.3782 12.2233 9.37482 12.224C9.37145 12.2247 9.36795 12.2244 9.36469 12.2233H7.625C7.625 12.1888 7.62805 12.1569 7.63125 12.1235C7.63284 12.107 7.63446 12.09 7.63576 12.0722C7.66839 11.711 7.73986 11.3544 7.84894 11.0084C7.9304 10.751 8.03108 10.5 8.15013 10.2576C8.15231 10.2509 8.15668 10.2452 8.16253 10.2413C8.16839 10.2374 8.17539 10.2356 8.1824 10.2362ZM9.77023 14.6785H8.15181C8.14282 14.6797 8.13372 14.6777 8.12605 14.6729C8.11839 14.6681 8.11263 14.6608 8.10976 14.6522C7.90982 14.2336 7.76929 13.7892 7.69219 13.332C7.66023 13.1431 7.63804 12.9527 7.62569 12.7616V12.7401H9.38592C9.4116 13.4023 9.54128 14.0564 9.77023 14.6785ZM13.1216 17.2975L13.0444 17.3511C13.0522 17.3596 13.062 17.3661 13.0729 17.3702C13.0837 17.3743 13.0954 17.3757 13.1069 17.3745L13.1578 17.3667C13.4693 17.3257 13.7759 17.2538 14.0731 17.1522C14.4385 17.0282 14.7876 16.8606 15.1126 16.6529C15.4343 16.4509 15.7299 16.2102 15.9927 15.9363C16.1823 15.7386 16.3557 15.526 16.511 15.3005C16.5277 15.2757 16.5438 15.2508 16.5608 15.2245L16.5824 15.1913H14.9444C14.9305 15.1885 14.916 15.1909 14.9037 15.1981C14.8914 15.2053 14.8822 15.2168 14.8779 15.2303C14.663 15.6697 14.3919 16.0794 14.0712 16.4492C13.7908 16.7698 13.4719 17.0547 13.1216 17.2975ZM11.8521 17.3562C11.8355 17.358 11.8188 17.358 11.8022 17.3562C10.8946 17.2299 10.0422 16.8472 9.34573 16.2534C8.98762 15.9504 8.67884 15.5938 8.43042 15.1964L8.42064 15.1779H9.95888C9.96822 15.1769 9.97762 15.179 9.9856 15.1839C9.99358 15.1889 9.99966 15.1964 10.0029 15.2052C10.176 15.5572 10.3851 15.8905 10.6268 16.1997C10.8382 16.4671 11.0728 16.7154 11.3279 16.9417C11.4891 17.0854 11.6596 17.2183 11.8384 17.3396L11.8482 17.3464V17.3562H11.8521ZM11.8476 7.66867L11.8241 7.64234L11.8212 7.63551C10.4091 7.85003 9.29917 8.5511 8.47187 9.71922H10.0267C10.0354 9.72019 10.0442 9.71822 10.0517 9.71362C10.0591 9.70903 10.0648 9.70207 10.0678 9.69387C10.2789 9.27314 10.5471 8.88336 10.8648 8.5355C11.1422 8.22433 11.4542 7.94562 11.7948 7.70474L11.8476 7.66867ZM14.2842 15.1943C13.8884 15.8907 13.3382 16.4877 12.6756 16.9396V15.1943H14.2842ZM12.1734 15.1936H10.6293C11.0018 15.8772 11.5308 16.4635 12.1734 16.9048V15.1936ZM14.2305 9.7164H12.6864V8.08902C13.3196 8.50601 13.848 9.06287 14.2305 9.7164ZM12.1733 9.73129V8.13901C11.5609 8.54667 11.0531 9.09208 10.6908 9.73129H12.1733Z" fill="#FFC83E"/>
</svg>
