<svg width="38" height="38" viewBox="0 0 38 38" fill="none" xmlns="http://www.w3.org/2000/svg">
<circle cx="19.4613" cy="18.7012" r="18.5" fill="#DFE3FF"/>
<path d="M13.7917 11.5C14.2887 11.5004 14.7652 11.6982 15.1165 12.0498C15.4677 12.4013 15.6651 12.878 15.6651 13.375V24.625C15.6725 24.8758 15.6296 25.1256 15.5388 25.3595C15.448 25.5934 15.3111 25.8067 15.1363 25.9868C14.9616 26.1669 14.7524 26.31 14.5213 26.4078C14.2902 26.5055 14.0418 26.5559 13.7909 26.5559C13.54 26.5559 13.2916 26.5055 13.0605 26.4078C12.8294 26.31 12.6202 26.1669 12.4455 25.9868C12.2707 25.8067 12.1338 25.5934 12.043 25.3595C11.9522 25.1256 11.9092 24.8758 11.9167 24.625V13.375C11.9167 12.8777 12.1143 12.4008 12.4659 12.0492C12.8175 11.6975 13.2944 11.5 13.7917 11.5ZM19.2084 14.8333C19.7054 14.8338 20.1819 15.0315 20.5331 15.3831C20.8844 15.7347 21.0817 16.2113 21.0817 16.7083V24.625C21.0892 24.8758 21.0463 25.1256 20.9554 25.3595C20.8646 25.5934 20.7278 25.8067 20.553 25.9868C20.3782 26.1669 20.1691 26.31 19.938 26.4078C19.7069 26.5055 19.4585 26.5559 19.2076 26.5559C18.9566 26.5559 18.7082 26.5055 18.4771 26.4078C18.246 26.31 18.0369 26.1669 17.8621 25.9868C17.6873 25.8067 17.5505 25.5934 17.4597 25.3595C17.3689 25.1256 17.3259 24.8758 17.3334 24.625V16.7083C17.3334 16.2111 17.5309 15.7341 17.8826 15.3825C18.2342 15.0309 18.7111 14.8333 19.2084 14.8333ZM24.6251 18.1667C25.1221 18.1671 25.5985 18.3648 25.9498 18.7164C26.3011 19.068 26.4984 19.5447 26.4984 20.0417V24.625C26.5059 24.8758 26.4629 25.1256 26.3721 25.3595C26.2813 25.5934 26.1444 25.8067 25.9697 25.9868C25.7949 26.1669 25.5858 26.31 25.3546 26.4078C25.1235 26.5055 24.8752 26.5559 24.6242 26.5559C24.3733 26.5559 24.1249 26.5055 23.8938 26.4078C23.6627 26.31 23.4536 26.1669 23.2788 25.9868C23.104 25.8067 22.9672 25.5934 22.8763 25.3595C22.7855 25.1256 22.7426 24.8758 22.7501 24.625V20.0417C22.75 19.7954 22.7984 19.5515 22.8926 19.324C22.9868 19.0965 23.1249 18.8897 23.299 18.7156C23.4731 18.5415 23.6799 18.4034 23.9074 18.3092C24.1349 18.215 24.3788 18.1666 24.6251 18.1667Z" fill="#40196D"/>
</svg>
