<svg width="25" height="25" viewBox="0 0 25 25" fill="none" xmlns="http://www.w3.org/2000/svg">
<circle opacity="0.7" cx="12.5" cy="12.5" r="12.5" fill="#EFF1FF"/>
<path fill-rule="evenodd" clip-rule="evenodd" d="M15.3096 9.63312V9.56217C15.3096 9.22895 15.5767 8.95883 15.9113 8.95883C16.2436 8.95883 16.513 9.22556 16.513 9.56217V10.7013L17.4659 11.5471C17.8247 11.8656 17.729 12.1238 17.2529 12.1238H16.513V16.8337C16.513 17.0729 16.3147 17.2669 16.0817 17.2669H8.92167C8.68345 17.2669 8.49034 17.0735 8.49034 16.8337V12.1238H7.74658C7.27013 12.1238 7.174 11.8663 7.53359 11.5471L12.1735 7.42857C12.3537 7.26865 12.6442 7.26725 12.826 7.42857L15.3096 9.63312Z" fill="#40196D"/>
<path d="M15.3096 9.63312L14.9777 10.0071L15.8096 10.7455V9.63312H15.3096ZM16.513 10.7013H16.013V10.926L16.1811 11.0752L16.513 10.7013ZM17.4659 11.5471L17.134 11.9211L17.4659 11.5471ZM16.513 12.1238V11.6238H16.013V12.1238H16.513ZM8.49034 12.1238H8.99034V11.6238H8.49034V12.1238ZM7.53359 11.5471L7.86551 11.9211L7.53359 11.5471ZM12.1735 7.42857L12.5055 7.80251L12.1735 7.42857ZM12.826 7.42857L12.494 7.80251V7.80251L12.826 7.42857ZM15.8096 9.63312V9.56217H14.8096V9.63312H15.8096ZM15.8096 9.56217C15.8096 9.50255 15.8553 9.45883 15.9113 9.45883V8.45883C15.298 8.45883 14.8096 8.95536 14.8096 9.56217H15.8096ZM15.9113 9.45883C15.968 9.45883 16.013 9.50225 16.013 9.56217H17.013C17.013 8.94887 16.5192 8.45883 15.9113 8.45883V9.45883ZM16.013 9.56217V10.7013H17.013V9.56217H16.013ZM16.1811 11.0752L17.134 11.9211L17.7978 11.1732L16.8449 10.3274L16.1811 11.0752ZM17.134 11.9211C17.1949 11.9752 17.2068 12.0014 17.2026 11.9929C17.1975 11.9826 17.1605 11.8978 17.2035 11.7815C17.247 11.6641 17.3319 11.6225 17.3458 11.6167C17.357 11.6121 17.3331 11.6238 17.2529 11.6238V12.6238C17.4108 12.6238 17.5774 12.6033 17.7292 12.5403C17.8837 12.4762 18.0594 12.3501 18.1415 12.1283C18.223 11.9077 18.1725 11.6986 18.0993 11.5504C18.027 11.4039 17.9163 11.2784 17.7978 11.1732L17.134 11.9211ZM17.2529 11.6238H16.513V12.6238H17.2529V11.6238ZM16.013 12.1238V16.8337H17.013V12.1238H16.013ZM16.013 16.8337C16.013 16.8121 16.0223 16.7952 16.0319 16.7857C16.0408 16.7768 16.0576 16.7669 16.0817 16.7669V17.7669C16.5889 17.7669 17.013 17.3509 17.013 16.8337H16.013ZM16.0817 16.7669H8.92167V17.7669H16.0817V16.7669ZM8.92167 16.7669C8.96116 16.7669 8.99034 16.799 8.99034 16.8337H7.99034C7.99034 17.3481 8.40575 17.7669 8.92167 17.7669V16.7669ZM8.99034 16.8337V12.1238H7.99034V16.8337H8.99034ZM8.49034 11.6238H7.74658V12.6238H8.49034V11.6238ZM7.74658 11.6238C7.66618 11.6238 7.64199 11.6121 7.65291 11.6166C7.66651 11.6222 7.75179 11.6637 7.79542 11.7815C7.83865 11.8981 7.80145 11.9832 7.79643 11.9934C7.79226 12.0018 7.80424 11.9755 7.86551 11.9211L7.20167 11.1732C7.08315 11.2784 6.9723 11.4039 6.89992 11.5504C6.82667 11.6986 6.77586 11.908 6.85773 12.1289C6.93999 12.3509 7.11617 12.4767 7.27056 12.5406C7.42226 12.6034 7.58876 12.6238 7.74658 12.6238V11.6238ZM7.86551 11.9211L12.5055 7.80251L11.8416 7.05463L7.20167 11.1732L7.86551 11.9211ZM12.5055 7.80251C12.5007 7.80675 12.4971 7.80821 12.4964 7.80845C12.496 7.80861 12.4973 7.80811 12.4999 7.80811C12.5025 7.8081 12.5037 7.80859 12.503 7.80837C12.5022 7.80805 12.4986 7.80654 12.494 7.80251L13.1579 7.05463C12.7858 6.72435 12.2102 6.72752 11.8416 7.05463L12.5055 7.80251ZM12.494 7.80251L14.9777 10.0071L15.6415 9.25919L13.1579 7.05463L12.494 7.80251Z" fill="#40196D"/>
<rect x="13.7998" y="12.9333" width="1.73333" height="3.46667" fill="white"/>
<path fill-rule="evenodd" clip-rule="evenodd" d="M7.60652 11.5327L12.5301 7.30005L14.4269 8.64957L15.2219 9.44675L15.5589 9.17158L15.9261 8.95711L16.477 9.10886L16.5981 9.9384L16.7514 10.7052L17.6998 11.6238V12.0264H17.1792L16.7211 12.1134L16.5678 12.9369V15.6137V17.0522L16.2611 17.2667H13.5087H10.2983H8.82934L8.49235 16.9045V15.9496L8.52262 14.2318L8.58518 12.2996L8.24819 12.1134L7.2998 11.9961L7.60652 11.5327ZM15.5331 12.9334H13.7998V16.4H15.5331V12.9334Z" fill="#40196D"/>
</svg>
