<svg width="25" height="25" viewBox="0 0 25 25" fill="none" xmlns="http://www.w3.org/2000/svg">
<circle opacity="0.7" cx="12.5" cy="12.5" r="12.5" fill="#DCFFEC"/>
<path d="M6.41846 9.5264C6.41846 8.78007 7.02348 8.17505 7.76981 8.17505H17.2293C17.9756 8.17505 18.5806 8.78007 18.5806 9.5264V15.6075C18.5806 16.3538 17.9756 16.9588 17.2293 16.9588H7.76981C7.02348 16.9588 6.41846 16.3538 6.41846 15.6075V9.5264Z" fill="#48D38A"/>
<path fill-rule="evenodd" clip-rule="evenodd" d="M17.2293 8.85072H7.76981C7.39664 8.85072 7.09413 9.15323 7.09413 9.5264V15.6075C7.09413 15.9806 7.39664 16.2832 7.76981 16.2832H17.2293C17.6024 16.2832 17.9049 15.9806 17.9049 15.6075V9.5264C17.9049 9.15323 17.6024 8.85072 17.2293 8.85072ZM7.76981 8.17505C7.02348 8.17505 6.41846 8.78007 6.41846 9.5264V15.6075C6.41846 16.3538 7.02348 16.9588 7.76981 16.9588H17.2293C17.9756 16.9588 18.5806 16.3538 18.5806 15.6075V9.5264C18.5806 8.78007 17.9756 8.17505 17.2293 8.17505H7.76981Z" fill="#DCFFEC"/>
<path d="M17.905 9.99927H7.09424V11.3506H17.905V9.99927Z" fill="white"/>
</svg>
