<svg width="25" height="25" viewBox="0 0 25 25" fill="none" xmlns="http://www.w3.org/2000/svg">
<circle opacity="0.7" cx="12.5" cy="12.5" r="12.5" fill="#FFF5DB"/>
<circle cx="11.4494" cy="8.9831" r="2.16425" fill="white"/>
<path d="M16.6952 12.2339H16.3784C16.1559 11.5444 15.6962 10.8664 15.1791 10.3627V8.79118C15.1791 8.74378 15.1293 8.70508 15.0818 8.70508C14.6234 8.70508 14.2102 8.92461 13.9512 9.26334C13.8797 10.5763 12.7862 11.6225 11.4559 11.6225C10.6633 11.6225 9.95485 11.2506 9.49718 10.673C9.32342 10.8609 9.16621 11.0649 9.02994 11.2829C9.02494 11.2891 9.01916 11.2945 9.0146 11.3011C8.93849 11.4136 8.81213 11.4807 8.67681 11.4807C8.45237 11.4807 8.26973 11.2982 8.26973 11.0738C8.26973 10.8994 8.38066 10.7444 8.54572 10.6884C8.68095 10.6425 8.75326 10.4959 8.70732 10.3605C8.66164 10.2255 8.51495 10.1531 8.37963 10.199C8.00487 10.3262 7.75293 10.6778 7.75293 11.0737C7.75293 11.5826 8.16639 11.9964 8.67492 11.9974C8.50546 12.4447 8.39798 12.9289 8.39798 13.4348C8.39798 14.7082 8.97331 15.921 10.0076 16.6883V17.6415C10.0076 17.9332 10.2732 18.1811 10.565 18.1811H10.9342C11.2259 18.1811 11.4729 17.9332 11.4729 17.6415V17.3766C12.1624 17.5497 12.8519 17.5497 13.4552 17.3766V17.6415C13.4552 17.9332 13.7429 18.1811 14.0345 18.1811H14.4036C14.6953 18.1811 14.9205 17.9332 14.9205 17.6415V16.6883C15.61 16.1717 16.1288 15.423 16.3784 14.6473H16.6952C16.9868 14.6473 17.2477 14.3877 17.2477 14.0961V12.7736C17.2477 12.4818 16.9868 12.2339 16.6952 12.2339ZM14.1674 12.743C13.8595 12.743 13.6098 12.4933 13.6098 12.1853C13.6098 11.8773 13.8594 11.6275 14.1674 11.6275C14.4755 11.6275 14.7253 11.8773 14.7253 12.1853C14.7252 12.4934 14.4754 12.743 14.1674 12.743Z" fill="#FFC83E"/>
</svg>
