<svg width="25" height="25" viewBox="0 0 25 25" fill="none" xmlns="http://www.w3.org/2000/svg">
<circle opacity="0.7" cx="12.5" cy="12.5" r="12.5" fill="#FFDBDB"/>
<path d="M8.78521 11.9964H9.73241C9.82833 11.9964 9.91026 11.9607 9.9782 11.8894C10.0481 11.8159 10.0831 11.7299 10.0831 11.6313C10.0831 11.5348 10.0481 11.4498 9.9782 11.3764C9.90826 11.3029 9.82633 11.2662 9.73241 11.2662H8.78521C8.69129 11.2662 8.60935 11.3029 8.53941 11.3764C8.47147 11.4477 8.4375 11.5327 8.4375 11.6313C8.4375 11.7299 8.47147 11.8159 8.53941 11.8894C8.60935 11.9607 8.69129 11.9964 8.78521 11.9964ZM11.0919 9.99164C11.1578 9.9224 11.1908 9.83743 11.1908 9.73672C11.1908 9.63601 11.1568 9.54999 11.0889 9.47866L10.4234 8.7737C10.3575 8.70446 10.2755 8.66985 10.1776 8.66985C10.0817 8.66775 9.99978 8.70237 9.93184 8.7737C9.86589 8.84294 9.83292 8.92791 9.83292 9.02862C9.83492 9.12933 9.86889 9.21535 9.93484 9.28668L10.6003 9.99164C10.6682 10.063 10.7501 10.0986 10.8461 10.0986C10.942 10.0986 11.0239 10.063 11.0919 9.99164ZM12.7405 9.34962C12.8344 9.34962 12.9153 9.31396 12.9833 9.24262C13.0512 9.17129 13.0852 9.08632 13.0852 8.98771V7.99636C13.0852 7.89355 13.0512 7.80648 12.9833 7.73515C12.9153 7.66172 12.8344 7.625 12.7405 7.625C12.6465 7.625 12.5646 7.66172 12.4947 7.73515C12.4267 7.80858 12.3928 7.89565 12.3928 7.99636V8.98771C12.3928 9.08632 12.4267 9.17129 12.4947 9.24262C12.5626 9.31396 12.6445 9.34962 12.7405 9.34962ZM14.3861 9.99164C14.452 10.063 14.533 10.0986 14.6289 10.0986C14.7268 10.0986 14.8087 10.063 14.8747 9.99164L15.5401 9.28668C15.608 9.21535 15.642 9.12933 15.642 9.02862C15.644 8.92791 15.611 8.84294 15.5431 8.7737C15.4772 8.70237 15.3952 8.66775 15.2973 8.66985C15.2014 8.66985 15.1195 8.70551 15.0515 8.77685L14.3861 9.47866C14.3201 9.54999 14.2872 9.63601 14.2872 9.73672C14.2872 9.83743 14.3201 9.9224 14.3861 9.99164ZM15.7455 11.9964H16.6927C16.7847 11.9964 16.8656 11.9607 16.9355 11.8894C17.0055 11.8159 17.0404 11.7299 17.0404 11.6313C17.0404 11.5327 17.0055 11.4477 16.9355 11.3764C16.8656 11.3029 16.7847 11.2662 16.6927 11.2662H15.7455C15.6516 11.2662 15.5697 11.3029 15.4997 11.3764C15.4298 11.4498 15.3948 11.5348 15.3948 11.6313C15.3948 11.7299 15.4288 11.8159 15.4967 11.8894C15.5667 11.9607 15.6496 11.9964 15.7455 11.9964Z" fill="#F7685B"/>
<path d="M11.7035 15.7322H13.8527C13.9207 15.7322 13.9756 15.7102 14.0176 15.6661C14.0616 15.62 14.0835 15.5612 14.0835 15.4899V15.0587C14.0835 14.9139 14.1175 14.7776 14.1854 14.6496C14.2534 14.5216 14.3373 14.3894 14.4372 14.2531C14.5391 14.1167 14.6401 13.9688 14.74 13.8093C14.8419 13.6478 14.9268 13.4652 14.9948 13.2617C15.0627 13.0561 15.0967 12.819 15.0967 12.5505C15.0967 12.1917 15.0407 11.8654 14.9288 11.5717C14.8189 11.2759 14.661 11.022 14.4552 10.8101C14.2514 10.5961 14.0076 10.4324 13.7238 10.3191C13.4401 10.2038 13.1243 10.1461 12.7766 10.1461C12.4309 10.1461 12.1162 10.2038 11.8324 10.3191C11.5487 10.4324 11.3039 10.5961 11.0981 10.8101C10.8922 11.022 10.7344 11.2759 10.6245 11.5717C10.5145 11.8654 10.4596 12.1917 10.4596 12.5505C10.4596 12.819 10.4936 13.0561 10.5615 13.2617C10.6294 13.4652 10.7134 13.6478 10.8133 13.8093C10.9152 13.9688 11.0161 14.1167 11.116 14.2531C11.216 14.3894 11.2999 14.5216 11.3678 14.6496C11.4378 14.7776 11.4727 14.9139 11.4727 15.0587V15.4899C11.4727 15.5612 11.4937 15.62 11.5357 15.6661C11.5796 15.7102 11.6356 15.7322 11.7035 15.7322ZM12.7766 17.375C12.9984 17.375 13.1823 17.3246 13.3282 17.2239C13.474 17.1253 13.555 16.9952 13.571 16.8337H11.9853C11.9993 16.9952 12.0782 17.1253 12.2221 17.2239C12.368 17.3246 12.5528 17.375 12.7766 17.375ZM11.7605 16.5945H13.7988C13.8807 16.5945 13.9506 16.563 14.0086 16.5001C14.0665 16.4393 14.0955 16.3669 14.0955 16.2829C14.0955 16.1969 14.0665 16.1224 14.0086 16.0595C13.9506 15.9987 13.8807 15.9682 13.7988 15.9682H11.7605C11.6766 15.9682 11.6056 15.9987 11.5477 16.0595C11.4897 16.1224 11.4607 16.1969 11.4607 16.2829C11.4607 16.3669 11.4897 16.4393 11.5477 16.5001C11.6056 16.563 11.6766 16.5945 11.7605 16.5945Z" fill="#F7685B"/>
</svg>
