<svg width="25" height="25" viewBox="0 0 25 25" fill="none" xmlns="http://www.w3.org/2000/svg">
<circle opacity="0.7" cx="12.5" cy="12.5" r="12.5" fill="#DBF8FF"/>
<path d="M12.5039 16.2143C12.5713 16.2143 12.6359 16.1964 12.6977 16.1606C12.7623 16.1275 12.8395 16.0696 12.9294 15.987L13.9363 15.0281C13.9897 14.9785 14.0192 14.9179 14.0248 14.8462C14.0332 14.7718 14.0121 14.7043 13.9616 14.6437C13.7903 14.4343 13.574 14.269 13.3128 14.1477C13.0544 14.0237 12.7847 13.9617 12.5039 13.9617C12.2202 13.9617 11.9436 14.0279 11.6739 14.1601C11.4043 14.2924 11.1824 14.4729 11.0083 14.7016C10.9718 14.7512 10.9619 14.8077 10.9788 14.871C10.9956 14.9316 11.0279 14.984 11.0757 15.0281L12.0826 15.987C12.1725 16.0696 12.2497 16.1275 12.3143 16.1606C12.3789 16.1964 12.4421 16.2143 12.5039 16.2143ZM10.014 13.9121C10.0814 13.9755 10.1572 14.0058 10.2415 14.0031C10.3258 14.0003 10.4002 13.9645 10.4648 13.8956C10.726 13.6338 11.0364 13.4272 11.3959 13.2756C11.7582 13.1241 12.1261 13.0483 12.4997 13.0483C12.8788 13.0483 13.251 13.1269 13.6161 13.2839C13.984 13.4382 14.3 13.6476 14.564 13.9121C14.623 13.9755 14.6918 14.0072 14.7705 14.0072C14.8491 14.0045 14.9207 13.9728 14.9853 13.9121L15.6468 13.3046C15.703 13.255 15.7324 13.1985 15.7353 13.1351C15.7409 13.069 15.7198 13.0084 15.6721 12.9533C15.4417 12.6943 15.1595 12.4683 14.8252 12.2754C14.491 12.0798 14.1259 11.9296 13.7299 11.8249C13.3338 11.7175 12.9238 11.6637 12.4997 11.6637C12.0812 11.6637 11.6725 11.7175 11.2737 11.8249C10.8749 11.9296 10.5083 12.0798 10.1741 12.2754C9.84267 12.4683 9.5632 12.6943 9.3357 12.9533C9.28234 13.0084 9.25846 13.069 9.26408 13.1351C9.2697 13.1985 9.30059 13.255 9.35677 13.3046L10.014 13.9121ZM8.30352 12.3085C8.36531 12.3691 8.43833 12.3994 8.52259 12.3994C8.60966 12.3967 8.68269 12.3622 8.74167 12.2961C9.24723 11.7781 9.81739 11.3854 10.4521 11.1182C11.0897 10.8481 11.7722 10.7131 12.4997 10.7131C13.2383 10.7131 13.9265 10.8481 14.564 11.1182C15.2016 11.3882 15.7704 11.785 16.2703 12.3085C16.3293 12.3664 16.4009 12.3939 16.4852 12.3912C16.5694 12.3884 16.641 12.3567 16.7 12.2961L17.2899 11.7133C17.3432 11.661 17.3713 11.599 17.3741 11.5273C17.3797 11.4557 17.3587 11.3937 17.3109 11.3414C16.9626 10.9198 16.5329 10.5533 16.0217 10.2419C15.5134 9.92783 14.9558 9.68398 14.3492 9.51039C13.7453 9.3368 13.1288 9.25 12.4997 9.25C11.8733 9.25 11.2582 9.3368 10.6544 9.51039C10.0505 9.68398 9.49299 9.92783 8.98181 10.2419C8.47063 10.5533 8.04231 10.9198 7.69684 11.3414C7.64629 11.3937 7.62241 11.4557 7.62522 11.5273C7.63084 11.599 7.66033 11.661 7.71369 11.7133L8.30352 12.3085Z" fill="#1DCBEF"/>
</svg>
