<svg alt="Kuda Micro Finance Logo" width="88" height="32" viewBox="0 0 88 32" fill="none" xmlns="http://www.w3.org/2000/svg">
<g clip-path="url(#clip0_62964_7487)"><path fill-rule="evenodd" clip-rule="evenodd" d="M4.67734 26.3927H5.48712V31.9068H4.58812V28.4795L3.0989 31.9068H2.43321L0.943992 28.5278V31.9068H0.03125V26.3927H0.834188L2.77635 30.7044L4.67734 26.3927Z" fill="#40196D"></path><path fill-rule="evenodd" clip-rule="evenodd" d="M7.87413 26.3927H6.85156V31.9068H7.87413V26.3927Z" fill="#40196D"></path><path fill-rule="evenodd" clip-rule="evenodd" d="M11.7772 31.9962C11.235 31.9962 10.7409 31.8856 10.336 31.6507C9.93108 31.4158 9.60855 31.091 9.38894 30.6695C9.16933 30.2342 9.06641 29.7366 9.06641 29.1631C9.06641 28.6034 9.17619 28.1059 9.38894 27.6844C9.60855 27.2491 9.93108 26.9243 10.336 26.7032C10.7546 26.4682 11.235 26.3577 11.7772 26.3577C12.1478 26.3577 12.5046 26.4199 12.8478 26.5443C13.1909 26.6548 13.4654 26.8276 13.685 27.028L13.3625 27.7604C13.1154 27.56 12.8478 27.4149 12.6007 27.3251C12.3537 27.2283 12.086 27.1869 11.8115 27.1869C11.2693 27.1869 10.8507 27.3596 10.5556 27.6982C10.2605 28.0437 10.1233 28.5412 10.1233 29.1769C10.1233 29.8334 10.2605 30.3309 10.5556 30.6833C10.8507 31.0288 11.2693 31.1946 11.8115 31.1946C12.0929 31.1946 12.3537 31.1462 12.6007 31.0703C12.8478 30.9735 13.1154 30.8353 13.3625 30.6349L13.685 31.3674C13.4654 31.5678 13.1909 31.7405 12.8478 31.8511C12.5252 31.9271 12.1684 31.9893 11.7772 31.9893V31.9962Z" fill="#40196D"></path><path fill-rule="evenodd" clip-rule="evenodd" d="M17.0802 28.8526C17.4645 28.8526 17.7459 28.7904 17.9312 28.6522C18.1165 28.514 18.2125 28.2929 18.2125 28.0165C18.2125 27.7332 18.1165 27.5328 17.9312 27.3946C17.7459 27.2564 17.4645 27.1942 17.0802 27.1942H15.8106V28.8595H17.0802V28.8526ZM19.4341 31.9206H18.3635L17.6498 30.0826C17.588 29.9098 17.492 29.7854 17.3547 29.7232C17.2312 29.661 17.0459 29.6127 16.84 29.6127H15.8175V31.8999H14.8086V26.3927H17.2106C17.8488 26.3927 18.3292 26.5309 18.6517 26.8003C18.9743 27.0837 19.1458 27.4706 19.1458 27.982C19.1458 28.3551 19.0361 28.666 18.8508 28.9148C18.6655 29.1635 18.3704 29.3501 18.0135 29.4607C18.3361 29.5228 18.59 29.7578 18.7272 30.1447L19.4272 31.9206H19.4341Z" fill="#40196D"></path><path fill-rule="evenodd" clip-rule="evenodd" d="M22.9314 31.193C23.4598 31.193 23.8647 31.0202 24.1392 30.6609C24.4343 30.3016 24.5715 29.8041 24.5715 29.1545C24.5715 28.4981 24.4343 28.0006 24.1392 27.662C23.8441 27.3027 23.4392 27.1299 22.9314 27.1299C22.4029 27.1299 21.998 27.3027 21.7235 27.6413C21.4284 27.9868 21.2912 28.4843 21.2912 29.1476C21.2912 29.8041 21.4284 30.3016 21.7235 30.654C22.0186 31.0133 22.4235 31.1861 22.9314 31.1861V31.193ZM22.9314 31.9876C22.3892 31.9876 21.9225 31.8771 21.5039 31.6421C21.099 31.4072 20.7902 31.0824 20.5706 30.6609C20.351 30.2256 20.248 29.7281 20.248 29.1545C20.248 28.581 20.3578 28.0835 20.5706 27.662C20.7902 27.2267 21.099 26.9019 21.4833 26.6808C21.8882 26.4458 22.3686 26.3353 22.9108 26.3353C23.4529 26.3353 23.9333 26.4458 24.3382 26.6808C24.7431 26.9157 25.0519 27.2405 25.251 27.662C25.4706 28.0835 25.5735 28.581 25.5735 29.1545C25.5735 29.7281 25.4637 30.2463 25.251 30.6609C25.0314 31.0824 24.7225 31.4072 24.3382 31.6421C23.9539 31.8771 23.4667 31.9876 22.9245 31.9876H22.9314Z" fill="#40196D"></path><path fill-rule="evenodd" clip-rule="evenodd" d="M26.7676 31.9316V26.4243H30.4254V27.212H27.7695V28.7253H30.2676V29.5338H27.7695V31.9316H26.7676Z" fill="#40196D"></path><path fill-rule="evenodd" clip-rule="evenodd" d="M32.4659 26.3927H31.4434V31.9068H32.4659V26.3927Z" fill="#40196D"></path><path fill-rule="evenodd" clip-rule="evenodd" d="M37.677 26.3927H38.617V31.9068H37.8623L34.8357 28.0442V31.9068H33.8887V26.3927H34.6504L37.677 30.2553V26.3927Z" fill="#40196D"></path><path fill-rule="evenodd" clip-rule="evenodd" d="M41.2742 29.8586H43.3331L42.2967 27.4953L41.2742 29.8586ZM44.232 31.9316L43.6763 30.6394H40.931L40.3545 31.9316H39.332L41.8713 26.4243H42.6949L45.2342 31.9316H44.2252H44.232Z" fill="#40196D"></path><path fill-rule="evenodd" clip-rule="evenodd" d="M49.8573 26.3927H50.8181V31.9068H50.0563L47.0298 28.0442V31.9068H46.0898V26.3927H46.8448L49.8713 30.2553V26.3927H49.8573Z" fill="#40196D"></path><path fill-rule="evenodd" clip-rule="evenodd" d="M54.7224 31.9962C54.1803 31.9962 53.6864 31.8856 53.2814 31.6507C52.8764 31.4158 52.5539 31.091 52.3342 30.6695C52.1146 30.2342 52.0117 29.7366 52.0117 29.1631C52.0117 28.6034 52.1217 28.1059 52.3342 27.6844C52.5539 27.2491 52.8764 26.9243 53.2814 26.7032C53.6999 26.4682 54.1803 26.3577 54.7224 26.3577C55.0931 26.3577 55.4499 26.4199 55.7931 26.5443C56.1364 26.6548 56.4106 26.8276 56.6303 27.028L56.3078 27.7604C56.0606 27.56 55.7931 27.4149 55.546 27.3251C55.2989 27.2283 55.0314 27.1869 54.7567 27.1869C54.2146 27.1869 53.796 27.3596 53.501 27.6982C53.206 28.0437 53.0685 28.5412 53.0685 29.1769C53.0685 29.8334 53.206 30.3309 53.501 30.6833C53.796 31.0288 54.2146 31.1946 54.7567 31.1946C55.0381 31.1946 55.2989 31.1462 55.546 31.0703C55.7931 30.9735 56.0606 30.8353 56.3078 30.6349L56.6303 31.3674C56.4106 31.5678 56.1364 31.7405 55.7931 31.8511C55.4499 31.9271 55.0931 31.9893 54.7224 31.9893V31.9962Z" fill="#40196D"></path><path fill-rule="evenodd" clip-rule="evenodd" d="M57.6973 31.9315V26.4243H61.4512V27.212H58.6923V28.7391H61.2794V29.5338H58.6923V31.1507H61.4512V31.9454H57.6973V31.9315Z" fill="#40196D"></path><path fill-rule="evenodd" clip-rule="evenodd" d="M67.2732 31.1467C67.6439 31.1467 67.9114 31.0845 68.0761 30.9602C68.2478 30.8358 68.3371 30.6354 68.3371 30.3521C68.3371 30.0688 68.2411 29.8546 68.0761 29.7302C67.9046 29.592 67.6439 29.5298 67.2732 29.5298H65.8321V31.1675L67.2732 31.1536V31.1467ZM65.8321 28.7213H67.136C67.836 28.7213 68.1928 28.4588 68.1928 27.9405C68.1928 27.6779 68.0968 27.4913 67.9321 27.367C67.7607 27.2426 67.4996 27.1804 67.1428 27.1804H65.8389V28.7213H65.8321ZM68.2821 29.0668C68.6046 29.1636 68.8586 29.3156 69.0232 29.5505C69.2086 29.7855 69.2839 30.0619 69.2839 30.4074C69.2839 30.8773 69.1125 31.2504 68.7693 31.513C68.4261 31.7755 67.9664 31.8999 67.3557 31.8999H64.8164V26.3927H67.28C67.8568 26.3927 68.3164 26.5171 68.6457 26.7797C68.9682 27.0284 69.14 27.3877 69.14 27.8369C69.14 28.134 69.0646 28.3827 68.9068 28.5969C68.7693 28.8181 68.5496 28.9701 68.2682 29.0668H68.2821Z" fill="#40196D"></path><path fill-rule="evenodd" clip-rule="evenodd" d="M71.7859 29.8586H73.8448L72.8084 27.4953L71.7859 29.8586ZM74.7438 31.9316L74.188 30.6394H71.4427L70.8663 31.9316H69.8438L72.383 26.4243H73.2066L75.7459 31.9316H74.737H74.7438Z" fill="#40196D"></path><path fill-rule="evenodd" clip-rule="evenodd" d="M80.2599 26.3927H81.2071V31.9068H80.4453L77.4257 28.0442V31.9068H76.4785V26.3927H77.2403L80.2599 30.2553V26.3927Z" fill="#40196D"></path><path fill-rule="evenodd" clip-rule="evenodd" d="M87.5063 31.9316H86.271L83.6631 29.3472V31.9316H82.6406V26.4243H83.6631V28.8981L86.161 26.4243H87.3828L84.6581 29.0708L87.5063 31.9316Z" fill="#40196D"></path><path fill-rule="evenodd" clip-rule="evenodd" d="M52.3059 6.08458V19.4069H48.4626V17.4583C48.0441 18.1563 47.488 18.6883 46.8223 19.0614C46.1566 19.4346 45.3676 19.6073 44.5098 19.6073C42.8487 19.6073 41.6137 19.1375 40.7901 18.2253C39.9666 17.2925 39.5684 15.8898 39.5684 14.0241V6.08458H43.5216V14.1001C43.5216 15.717 44.2009 16.5117 45.5801 16.5117C46.4037 16.5117 47.0694 16.2284 47.5637 15.6687C48.0784 15.1089 48.3251 14.3765 48.3251 13.4575V6.07768H52.3059V6.08458Z" fill="#40196D"></path><path fill-rule="evenodd" clip-rule="evenodd" d="M67.4149 0.00378418V19.4H63.5099V17.4237C63.1049 18.1078 62.5353 18.6399 61.8078 19.0268C61.0806 19.4138 60.2432 19.6004 59.3099 19.6004C58.1774 19.6004 57.1549 19.3032 56.2696 18.7159C55.3846 18.1216 54.6914 17.2993 54.1903 16.2421C53.696 15.1849 53.4492 13.9687 53.4492 12.6006C53.4492 11.2324 53.696 10.0301 54.1903 8.9867C54.6846 7.94329 55.3846 7.13483 56.2492 6.57511C57.1346 6.0016 58.1431 5.71829 59.3031 5.71829C60.1881 5.71829 61.0049 5.90485 61.7392 6.27801C62.4667 6.65113 63.0431 7.18318 63.4414 7.83275V0.00378418H67.4078H67.4149ZM62.7207 15.5649C63.2492 14.8947 63.5099 13.9273 63.5099 12.6559C63.5099 11.4121 63.2492 10.4585 62.7071 9.77444C62.1785 9.10414 61.4235 8.76558 60.4767 8.76558C59.5021 8.76558 58.7403 9.09035 58.1982 9.7606C57.656 10.4309 57.3953 11.3775 57.3953 12.5937C57.3953 13.8513 57.656 14.8325 58.1982 15.5166C58.7403 16.2006 59.5021 16.56 60.4767 16.56C61.451 16.5738 62.2128 16.2352 62.7274 15.5649H62.7207Z" fill="#40196D"></path><path fill-rule="evenodd" clip-rule="evenodd" d="M82.5445 6.08071V19.4031H78.6399V17.4268C78.2349 18.1109 77.6652 18.643 76.9377 19.0299C76.2102 19.4169 75.3731 19.6035 74.4399 19.6035C73.2938 19.6035 72.2709 19.3201 71.3859 18.7605C70.5006 18.2007 69.8209 17.4061 69.327 16.3627C68.8327 15.3193 68.5859 14.1239 68.5859 12.7488C68.5859 11.3806 68.8327 10.1645 69.327 9.09347C69.8209 8.02243 70.5209 7.19321 71.4063 6.60586C72.2917 6.01162 73.3142 5.72142 74.4467 5.72142C75.3799 5.72142 76.1966 5.92181 76.9445 6.32949C77.672 6.73717 78.2484 7.27612 78.6466 7.96021V6.07381H82.5513L82.5445 6.08071ZM77.8641 15.5888C78.3927 14.9185 78.6534 13.9511 78.6534 12.6935C78.6534 11.4359 78.3927 10.4685 77.8641 9.78446C77.3359 9.1142 76.5945 8.77557 75.6131 8.77557C74.6388 8.77557 73.877 9.13493 73.3349 9.83282C72.7927 10.5307 72.532 11.4981 72.532 12.7419C72.532 13.9857 72.7927 14.9393 73.3349 15.5888C73.8631 16.2452 74.6388 16.57 75.627 16.57C76.5742 16.5838 77.3288 16.2591 77.8574 15.5888H77.8641Z" fill="#40196D"></path><path fill-rule="evenodd" clip-rule="evenodd" d="M38.6775 19.5866H33.7775L28.4932 13.5473V19.5866H24.4922V0.00378418H28.4932V11.8958L33.5304 6.11908H38.3343L32.6314 12.5799L38.6775 19.5866Z" fill="#40196D"></path><path fill-rule="evenodd" clip-rule="evenodd" d="M13.5612 19.5866L5.87496 10.7142L10.075 19.5866H7.15828L2.8828 10.5414L4.66025 19.5866H2.86222L1.09849 10.5276V19.5866H0.384766V0.00378418H1.09849V9.78137L2.89653 0.00378418H4.68085L2.86222 9.809L7.23378 0.00378418H10.1024L5.76514 9.78137L13.6505 0.00378418H18.1661L9.99261 10.1199L18.1936 19.5866H13.5612Z" fill="#40196D"></path><path fill-rule="evenodd" clip-rule="evenodd" d="M87.9992 17.2011C87.9992 16.0057 87.0246 15.0245 85.8307 15.0245C84.6364 15.0245 83.6621 16.0057 83.6621 17.2011C83.6621 18.3965 84.6364 19.3778 85.8307 19.3778C87.0246 19.3639 87.9992 18.3965 87.9992 17.2011Z" fill="#40196D"></path></g><defs><clipPath id="clip0_62964_7487"><rect width="88" height="32" fill="white"></rect></clipPath></defs></svg>