<svg width="25" height="25" viewBox="0 0 25 25" fill="none" xmlns="http://www.w3.org/2000/svg">
<circle opacity="0.7" cx="12.5" cy="12.5" r="12.5" fill="#DBF8FF"/>
<g clip-path="url(#clip0_50062_9897)">
<path d="M16.8673 10.3212C16.8344 10.2498 16.7996 10.1812 16.7644 10.1103C16.7611 10.1061 16.7602 10.1014 16.757 10.0972C16.6993 9.98446 16.6354 9.87775 16.5691 9.77148C16.4928 9.65016 16.4126 9.53441 16.3281 9.42188C16.3249 9.41764 16.3244 9.4153 16.3212 9.41106C16.2432 9.30701 16.1614 9.20852 16.0753 9.11326C14.6257 7.48879 12.2149 6.97586 10.1811 7.98646C10.1546 8.00113 10.1254 8.01391 10.099 8.02858C10.0371 8.06203 9.97529 8.09548 9.9158 8.12849C9.7864 8.20375 9.66258 8.2828 9.54199 8.36609C9.454 8.4287 9.37116 8.49276 9.29258 8.5536C9.28406 8.56005 9.27789 8.56606 9.26938 8.57251C9.16142 8.65827 9.05904 8.74782 8.9599 8.84161C7.41325 10.3202 6.95882 12.6885 7.99657 14.6717C8.07222 14.8149 8.15168 14.9526 8.24011 15.0862C8.35292 15.2588 8.47615 15.4222 8.60747 15.5768C8.62641 15.5999 8.64492 15.6207 8.66343 15.6414C8.66343 15.6414 8.66387 15.6437 8.66666 15.6456C8.69721 15.6787 8.72821 15.714 8.75876 15.747C8.76478 15.7532 8.7708 15.7593 8.77682 15.7654C8.77962 15.7673 8.78006 15.7697 8.78285 15.7716C8.78887 15.7777 8.79768 15.7858 8.80414 15.7942C8.80694 15.7961 8.81017 15.8004 8.81296 15.8023C8.90931 15.9004 9.00758 15.9958 9.10966 16.0857C10.5848 17.3806 12.7604 17.7173 14.6153 16.7767C14.6308 16.769 14.6487 16.7607 14.6639 16.7506C14.9296 16.6109 15.1796 16.4524 15.4087 16.2735C15.5109 16.1961 15.6076 16.1149 15.701 16.0295C15.7034 16.029 15.7029 16.0267 15.7053 16.0263C15.8134 15.9284 15.9159 15.8267 16.0152 15.7207C17.3352 14.292 17.7229 12.1641 16.8673 10.3212ZM14.4037 13.8311C14.1843 14.139 13.888 14.4008 13.5289 14.5871C13.4425 14.6325 13.3525 14.6712 13.262 14.7076C13.1937 14.7326 13.1273 14.7548 13.0581 14.7751C12.3838 14.9675 11.6732 14.8638 11.0917 14.5153C11.0721 14.5021 11.0507 14.4916 11.0312 14.4783C10.6798 14.2536 10.3793 13.937 10.1707 13.5401C10.1634 13.527 10.1584 13.5134 10.151 13.5002C10.1355 13.4692 10.1194 13.4359 10.1062 13.4045C9.74268 12.5981 9.85078 11.686 10.3239 10.9935C10.3544 10.949 10.385 10.9045 10.4207 10.8614C10.6326 10.5913 10.9032 10.361 11.2292 10.193C11.351 10.1289 11.475 10.0764 11.6011 10.0357C11.6468 10.0198 11.6906 10.0067 11.7372 9.99556C12.52 9.78514 13.3511 9.97275 13.964 10.4753C13.9928 10.4989 14.0221 10.5249 14.0513 10.5509C14.2652 10.7433 14.4476 10.9755 14.5879 11.2423C14.6672 11.3921 14.7277 11.5455 14.7718 11.702C14.7803 11.7343 14.7888 11.7667 14.7973 11.799C14.964 12.4776 14.8326 13.1881 14.4557 13.7583C14.4385 13.7834 14.4209 13.8061 14.4037 13.8311Z" fill="#1DCBEF"/>
<path d="M11.7374 9.99554C11.6908 10.0067 11.6471 10.0198 11.6014 10.0357C11.4752 10.0764 11.3512 10.1288 11.2295 10.193C10.9062 10.3629 10.6329 10.5912 10.4209 10.8614C10.3876 10.904 10.3547 10.949 10.3241 10.9935L8.77022 9.03487C8.85394 8.93671 9.03049 8.76292 9.26447 8.57104C9.27299 8.56459 9.27916 8.55858 9.28768 8.55213C9.36582 8.48895 9.4491 8.42723 9.53708 8.36462C9.73009 8.2265 9.94835 8.09331 10.1762 7.98499L11.7374 9.99554Z" fill="#7EE1F6"/>
<path d="M16.0191 15.73C15.8479 15.9318 15.2764 16.4635 14.6128 16.7775L13.0603 14.775C13.1295 14.7547 13.1959 14.7325 13.2642 14.7075C13.3551 14.6734 13.4424 14.6328 13.5311 14.587C13.8902 14.4006 14.186 14.1365 14.4059 13.831C14.4231 13.8059 14.4403 13.7809 14.4575 13.7558L16.0174 15.7206L16.0191 15.73Z" fill="#7EE1F6"/>
<path d="M11.0911 14.5163L9.10721 16.0894L9.09443 16.0991C9.04243 16.0555 8.88321 15.882 8.80169 15.798C8.79287 15.7899 8.78641 15.7814 8.78039 15.7753C8.7776 15.7734 8.77716 15.7711 8.77437 15.7692C8.76834 15.763 8.76232 15.7569 8.7563 15.7508C8.72619 15.7201 8.6952 15.6847 8.6642 15.6494C8.66376 15.647 8.66376 15.647 8.66097 15.6451C8.64247 15.6244 8.62396 15.6036 8.60501 15.5805C8.48618 15.4406 8.35119 15.2794 8.23765 15.0899C8.22384 15.0683 8.21239 15.0462 8.19858 15.0246L10.149 13.5063C10.1564 13.5194 10.1613 13.533 10.1687 13.5462C10.3773 13.9431 10.6754 14.2601 11.0291 14.4843C11.0525 14.4921 11.0716 14.503 11.0911 14.5163Z" fill="#7EE1F6"/>
<path d="M16.8674 10.319L16.8632 10.3222L14.7955 11.7996C14.787 11.7673 14.7785 11.7349 14.77 11.7026C14.7236 11.5466 14.663 11.3932 14.5861 11.2429C14.4454 10.9737 14.2629 10.7415 14.0495 10.5515L16.0712 9.11429L16.0754 9.11107C16.1652 9.21291 16.2451 9.31418 16.3171 9.4121C16.3203 9.41633 16.3231 9.41823 16.324 9.42291C16.4153 9.54626 16.4936 9.6648 16.565 9.77252C16.6493 9.89719 16.716 10.0058 16.759 10.0922L16.8674 10.319Z" fill="#7EE1F6"/>
<path d="M13.5016 17.6779C16.4339 17.0555 18.3085 14.1838 17.6887 11.2638C17.0689 8.34372 14.1894 6.48112 11.2571 7.10352C8.32483 7.72592 6.4502 10.5976 7.07 13.5176C7.68979 16.4377 10.5693 18.3003 13.5016 17.6779Z" stroke="#7EE1F6" stroke-width="0.73366" stroke-miterlimit="10"/>
<path d="M16.0583 15.6484L14.6556 16.7016C14.4992 16.8191 14.468 17.0425 14.5851 17.1952L14.728 17.3846C14.8457 17.5402 15.0698 17.5709 15.2234 17.4541L16.626 16.4008C16.7824 16.2833 16.8136 16.06 16.6966 15.9072L16.5536 15.7178C16.4388 15.5616 16.2147 15.5309 16.0583 15.6484Z" fill="#1DCBEF"/>
<path d="M9.55044 7.3016L8.14779 8.35485C7.99137 8.47233 7.96018 8.69567 8.07724 8.84842L8.22021 9.03781C8.33788 9.19344 8.56203 9.22412 8.71556 9.10725L10.1182 8.054C10.2746 7.93652 10.3058 7.71318 10.1888 7.56043L10.0458 7.37104C9.93101 7.2148 9.70687 7.18411 9.55044 7.3016Z" fill="#1DCBEF"/>
</g>
<defs>
<clipPath id="clip0_50062_9897">
<rect width="13" height="13" fill="white" transform="translate(6 6)"/>
</clipPath>
</defs>
</svg>
