<svg width="25" height="25" viewBox="0 0 25 25" fill="none" xmlns="http://www.w3.org/2000/svg">
<circle opacity="0.7" cx="12.5" cy="12.5" r="12.5" fill="#DCFFEC"/>
<path fill-rule="evenodd" clip-rule="evenodd" d="M17.375 11.1623C17.375 10.8626 17.1337 10.6174 16.8388 10.6174H16.1975L15.7325 9.38872C15.617 9.08354 15.2694 8.76032 14.9599 8.67045C14.9372 8.66405 14.1337 8.4375 12.5 8.4375C10.8425 8.4375 10.04 8.67055 10.04 8.67055C9.73061 8.76042 9.38302 9.08354 9.26749 9.38882L8.80251 10.6174H8.16125C7.86631 10.6174 7.625 10.8626 7.625 11.1623C7.625 11.4621 7.86631 11.7073 8.16125 11.7073H8.38999L8.22502 12.1433C8.10948 12.4484 8.015 12.9657 8.015 13.2927V15.8689C8.015 16.2504 8.32213 16.5625 8.6975 16.5625C9.07288 16.5625 9.38 16.2504 9.38 15.8689V15.4726H15.62V15.8689C15.62 16.2504 15.9271 16.5625 16.3025 16.5625C16.6779 16.5625 16.985 16.2504 16.985 15.8689V13.2927C16.985 12.9657 16.8904 12.4484 16.775 12.1433L16.6099 11.7073H16.8388C17.1337 11.7073 17.375 11.4621 17.375 11.1623ZM9.45233 13.7188C9.11573 13.7188 8.84296 13.4456 8.84296 13.1094C8.84296 12.7731 9.11573 12.5 9.45233 12.5C9.78882 12.5 10.0617 12.7731 10.0617 13.1094C10.0617 13.4456 9.78882 13.7188 9.45233 13.7188ZM15.343 13.1094C15.343 13.446 15.6157 13.7188 15.9523 13.7188C16.2889 13.7188 16.5617 13.446 16.5617 13.1094C16.5617 12.7728 16.2889 12.5 15.9523 12.5C15.6157 12.5 15.343 12.7728 15.343 13.1094Z" fill="#48D38A"/>
</svg>
