<svg width="25" height="25" viewBox="0 0 25 25" fill="none" xmlns="http://www.w3.org/2000/svg">
<circle opacity="0.7" cx="12.5" cy="12.5" r="12.5" fill="#DBF8FF"/>
<path d="M15.1334 10.8587H13.0981L14.7224 8.70156C14.7675 8.64142 14.7869 8.56582 14.7762 8.49139C14.7656 8.41697 14.7258 8.34982 14.6657 8.30471C14.6359 8.28237 14.602 8.26612 14.566 8.25688C14.5299 8.24765 14.4924 8.2456 14.4555 8.25087C14.3811 8.2615 14.314 8.30126 14.2688 8.3614L13.0358 10.014L12.5312 10.6716L10.7992 8.3614C10.7769 8.33162 10.7489 8.30653 10.7169 8.28757C10.6849 8.2686 10.6494 8.25613 10.6126 8.25087C10.5757 8.2456 10.5382 8.24765 10.5021 8.25688C10.4661 8.26612 10.4322 8.28237 10.4024 8.30471C10.3423 8.34982 10.3025 8.41697 10.2919 8.49139C10.2812 8.56582 10.3006 8.64142 10.3457 8.70156L11.97 10.8587H9.86665C9.56593 10.8587 9.27753 10.9782 9.06489 11.1908C8.85225 11.4035 8.73279 11.6919 8.73279 11.9926V15.6181C8.73279 15.9188 8.85225 16.2072 9.06489 16.4199C9.27753 16.6325 9.56593 16.752 9.86665 16.752H15.1334C15.4341 16.752 15.7225 16.6325 15.9352 16.4199C16.1478 16.2072 16.2673 15.9188 16.2673 15.6181V11.9926C16.2673 11.6919 16.1478 11.4035 15.9352 11.1908C15.7225 10.9782 15.4341 10.8587 15.1334 10.8587ZM11.6156 13.7671C11.5783 13.7673 11.5413 13.7601 11.5068 13.746C11.4723 13.7319 11.4408 13.7111 11.4144 13.6849C11.3878 13.6585 11.3667 13.6272 11.3523 13.5926C11.3379 13.5581 11.3305 13.521 11.3305 13.4836C11.3305 13.4462 11.3379 13.4091 11.3523 13.3746C11.3667 13.34 11.3878 13.3087 11.4144 13.2823L12.1003 12.5992C12.1258 12.5695 12.157 12.5454 12.1922 12.5284C12.2274 12.5114 12.2657 12.5018 12.3047 12.5003C12.3437 12.4988 12.3827 12.5054 12.4191 12.5196C12.4554 12.5339 12.4885 12.5555 12.5161 12.5831C12.5437 12.6108 12.5653 12.6438 12.5796 12.6802C12.5938 12.7166 12.6004 12.7555 12.5989 12.7945C12.5974 12.8336 12.5878 12.8719 12.5708 12.907C12.5538 12.9422 12.5297 12.9735 12.5 12.9989L11.8169 13.6849C11.7904 13.7111 11.759 13.7319 11.7244 13.746C11.6899 13.7601 11.6529 13.7673 11.6156 13.7671ZM14.3624 13.2937L12.4774 15.1816C12.451 15.2081 12.4197 15.2292 12.3851 15.2436C12.3506 15.258 12.3135 15.2654 12.2761 15.2654C12.2387 15.2654 12.2016 15.258 12.1671 15.2436C12.1325 15.2292 12.1012 15.2081 12.0748 15.1816C12.0483 15.1552 12.0272 15.1239 12.0128 15.0893C11.9984 15.0548 11.991 15.0177 11.991 14.9803C11.991 14.9429 11.9984 14.9058 12.0128 14.8713C12.0272 14.8367 12.0483 14.8054 12.0748 14.779L13.9627 12.894C13.9881 12.8643 14.0194 12.8402 14.0546 12.8232C14.0897 12.8062 14.128 12.7966 14.1671 12.7951C14.2061 12.7936 14.245 12.8002 14.2814 12.8144C14.3178 12.8287 14.3508 12.8503 14.3785 12.8779C14.4061 12.9056 14.4277 12.9386 14.4419 12.975C14.4562 13.0114 14.4628 13.0503 14.4613 13.0893C14.4598 13.1284 14.4502 13.1667 14.4332 13.2018C14.4162 13.237 14.3921 13.2683 14.3624 13.2937Z" fill="#1DCBEF"/>
</svg>
